<svg id="Capa_1" enable-background="new 0 0 512 512" height="512" viewBox="0 0 512 512" width="512" xmlns="http://www.w3.org/2000/svg"><g><path d="m139.003 0-23.779 63.412c-11.765 31.375-4.058 66.957 19.636 90.65l19.135 19.136 86.788 18.034-56.082-191.232z" fill="#ea9b58"/><path d="m396.777 63.412-23.781-63.412h-45.697l-56.082 191.231 86.788-18.034 19.136-19.136c23.692-23.693 31.4-59.275 19.636-90.649z" fill="#ae632c"/><g><path d="m207.058 118.32c-30.712 0-57.653 19.647-67.04 48.889l-24.758 77.127 40.305 145.837 100.435 76.73 10-184.61-10-163.973z" fill="#d88a55"/><path d="m356.308 390.636 40.432-146.3-24.758-77.128c-9.388-29.242-36.329-48.889-67.041-48.889h-48.941v348.583z" fill="#c57a44"/></g><g><path d="m187.667 226h30v30h-30z" fill="#8d562f"/><path d="m294.333 226h30v30h-30z" fill="#744727"/></g><g><path d="m232.27 411.843c-9.936-17.042-28.397-28.503-49.546-28.503-9.828 0-19.076 2.477-27.159 6.834 0 0-3.914 34.027-3.914 45.398 0 42.143 34.286 76.428 76.428 76.428h27.921l10-51.959-10-48.198z" fill="#ffdf8e"/><path d="m360.35 435.572c0-11.37-4.041-44.936-4.041-44.936-8.278-4.64-17.817-7.296-27.982-7.296-21.149 0-39.61 11.461-49.546 28.503h-22.781v100.157h27.922c42.143 0 76.428-34.285 76.428-76.428z" fill="#ffc869"/></g><g><path d="m217.667 474.917h-5.525c-23.695 0-42.903-19.208-42.903-42.903 0-9.743 7.898-17.641 17.641-17.641 17.003 0 30.787 13.784 30.787 30.786z" fill="#d88a55"/><path d="m294.333 474.917h5.525c23.695 0 42.903-19.208 42.903-42.903 0-9.743-7.898-17.641-17.641-17.641-17.003 0-30.787 13.784-30.787 30.786z" fill="#c57a44"/></g><g><path d="m190.741 116.217v4.001l33.506.351v65.794h31.753l10-68.043-10-67.362c-35.984 0-65.259 29.275-65.259 65.259z" fill="#ffdf8e"/><path d="m321.259 121.104v-4.887c0-35.984-29.275-65.259-65.259-65.259v135.405c35.984 0 65.259-29.276 65.259-65.259z" fill="#ffc869"/></g></g></svg>