<?xml version="1.0" encoding="iso-8859-1"?>
<!-- Generator: Adobe Illustrator 19.0.0, SVG Export Plug-In . SVG Version: 6.00 Build 0)  -->
<svg version="1.1" id="Capa_1" xmlns="http://www.w3.org/2000/svg" xmlns:xlink="http://www.w3.org/1999/xlink" x="0px" y="0px"
	 viewBox="0 0 512 512" style="enable-background:new 0 0 512 512;" xml:space="preserve">
<path style="fill:#8B8892;" d="M90,301H75c-41.4,0-75-33.6-75-75s33.6-75,75-75h15V301z"/>
<path style="fill:#AEADB3;" d="M61,268.4c-17.5-6.2-30-22.9-30-42.4s12.5-36.2,30-42.4V268.4z"/>
<path style="fill:#787780;" d="M437,301h-15V151h15c41.4,0,75,33.6,75,75S478.4,301,437,301z"/>
<g>
	<path style="fill:#8B8892;" d="M451,183.6c17.5,6.2,30,22.9,30,42.4s-12.5,36.2-30,42.4V183.6z"/>
	<path style="fill:#8B8892;" d="M381.4,473.9C368.5,496.7,343.9,512,316,512H196c-27.9,0-52.5-15.3-65.1-38.1l57.6-64.5H316
		L381.4,473.9z"/>
</g>
<path style="fill:#787780;" d="M381.4,473.9C368.5,496.7,343.9,512,316,512h-60V409.4h60L381.4,473.9z"/>
<path style="fill:#57555C;" d="M346,0H166C108.1,0,61,47.1,61,105v272c0,41.4,33.6,75,75,75h11.7l33.9-136l-24.9-99.3l99.3,24.9
	l99.3-24.9L330.4,316l33.9,136H376c41.4,0,75-33.6,75-75V105C451,47.1,403.9,0,346,0z"/>
<path style="fill:#3C3A41;" d="M451,105v272c0,41.4-33.6,75-75,75h-11.7l-33.9-136l24.9-99.3L256,241.6V0h90
	C403.9,0,451,47.1,451,105z"/>
<path style="fill:#AEADB3;" d="M361.6,316L391,437c0,2.7-0.3,5.7-0.3,8.4c-1.2,10.2-4.5,20.1-9.3,28.5c-40.8-14.1-83.1-21-125.4-21
	s-84.6,6.9-125.1,21c-5.1-8.4-8.4-18.3-9.6-28.5c0-2.7-0.3-5.7-0.3-8.4l0.6-3.6L150.4,316L121,207.7l30.9-6.6l103.5,26.4l0.6-0.3
	l110.1-28.8l24.9,9.3L361.6,316z"/>
<path style="fill:#8B8892;" d="M361.6,316L391,437c0,2.7-0.3,5.7-0.3,8.4c-1.2,10.2-4.5,20.1-9.3,28.5c-40.8-14.1-83.1-21-125.4-21
	V227.2l110.1-28.8l24.9,9.3L361.6,316z"/>
<g>
	<polygon style="fill:#3C3A41;" points="356.5,115.5 322.3,150 189.7,150 155.5,115.5 176.5,94.5 202.3,120 309.7,120 335.5,94.5 	
		"/>
	<rect x="211" y="60" style="fill:#3C3A41;" width="90" height="30"/>
</g>
<polygon style="fill:#343236;" points="211,213.7 211,256 181,256 181,206.8 "/>
<polygon style="fill:#252325;" points="331,208 331,256 301,256 301,215.2 "/>
<path style="fill:#343236;" d="M241,346h-30c0-8.3-6.7-15-15-15v-30C220.8,301,241,321.2,241,346z"/>
<path style="fill:#252325;" d="M301,346h-30c0-24.8,20.2-45,45-45v30C307.7,331,301,337.7,301,346z"/>
<polygon style="fill:#3C3A41;" points="391,151 391,207.7 256,241.6 121,207.7 121,151 151,151 151,184.3 256,210.4 361,184.3 
	361,151 "/>
<g>
	<rect x="256" y="60" style="fill:#2B292C;" width="45" height="30"/>
	<polygon style="fill:#2B292C;" points="322.3,150 256,150 256,120 309.7,120 335.5,94.5 356.5,115.5 	"/>
	<polygon style="fill:#2B292C;" points="391,151 391,207.7 256,241.6 256,210.4 361,184.3 361,151 	"/>
</g>
<g>
</g>
<g>
</g>
<g>
</g>
<g>
</g>
<g>
</g>
<g>
</g>
<g>
</g>
<g>
</g>
<g>
</g>
<g>
</g>
<g>
</g>
<g>
</g>
<g>
</g>
<g>
</g>
<g>
</g>
</svg>
