<svg id="Capa_1" enable-background="new 0 0 512 512" height="512" viewBox="0 0 512 512" width="512" xmlns="http://www.w3.org/2000/svg"><g><path d="m492.393 189.012-61.357-133.649c-15.441-33.632-49.329-55.363-86.336-55.363h-177.4c-37.007 0-70.896 21.731-86.336 55.363l-61.357 133.65c-13.01 28.34-19.607 58.52-19.607 89.703v76.284c0 47.261 28.774 89.37 72.224 106.755 16.026 29.878 47.565 50.245 83.776 50.245h200c36.211 0 67.75-20.367 83.776-50.245 43.45-17.385 72.224-59.494 72.224-106.755v-76.284c0-31.183-6.597-61.363-19.607-89.704z" fill="#0a789b"/><path d="m431.036 55.363c-15.441-33.632-49.329-55.363-86.336-55.363h-88.7v512h100c36.211 0 67.75-20.367 83.776-50.245 43.45-17.385 72.224-59.494 72.224-106.755v-76.284c0-31.183-6.597-61.363-19.607-89.704z" fill="#08475e"/><path d="m374.331 412h-236.662c-7.327 0-13.582-5.293-14.794-12.519-1.244-7.416-1.875-14.98-1.875-22.481 0-32.551 11.454-73.604 29.97-109.325-10.721-3.781-20.511-10-28.661-18.346-13.873-14.206-21.454-33.012-21.307-52.895.305-41.36 34.612-74.434 75.973-74.434h158.05c41.361 0 75.668 33.074 75.973 74.434.147 19.883-7.434 38.689-21.307 52.895-8.15 8.346-17.94 14.564-28.661 18.346 18.516 35.721 29.97 76.774 29.97 109.325 0 7.501-.631 15.065-1.875 22.481-1.212 7.226-7.467 12.519-14.794 12.519z" fill="#f7daa1"/><path d="m410.998 196.434c-.305-41.36-34.612-74.434-75.973-74.434h-79.025v290h118.331c7.327 0 13.582-5.293 14.794-12.519 1.244-7.416 1.875-14.98 1.875-22.481 0-32.551-11.454-73.604-29.97-109.325 10.721-3.781 20.511-10 28.661-18.346 13.873-14.206 21.453-33.012 21.307-52.895z" fill="#f4b978"/><path d="m256 422c-8.284 0-15-6.716-15-15v-40c0-8.284 6.716-15 15-15s15 6.716 15 15v40c0 8.284-6.716 15-15 15z" fill="#08475e"/><path d="m271 407v-40c0-8.284-6.716-15-15-15v70c8.284 0 15-6.716 15-15z" fill="#05303d"/><path d="m291.012 332.003c-5.503 0-10.8-3.038-13.428-8.295l-10-20c-3.705-7.409-.701-16.42 6.708-20.124 7.41-3.707 16.419-.702 20.125 6.708l10 20c3.705 7.409.701 16.42-6.708 20.124-2.154 1.077-4.443 1.587-6.697 1.587z" fill="#05303d"/><path d="m220.988 332.003c-2.254 0-4.543-.51-6.696-1.587-7.41-3.704-10.413-12.715-6.708-20.124l10-20c3.705-7.409 12.715-10.414 20.125-6.708 7.41 3.704 10.413 12.715 6.708 20.124l-10 20c-2.628 5.256-7.926 8.295-13.429 8.295z" fill="#08475e"/><path d="m122.875 399.482c5.222 31.122 21.377 59.605 45.49 80.204 24.392 20.838 55.514 32.314 87.635 32.314s63.243-11.476 87.635-32.313c24.112-20.599 40.268-49.082 45.49-80.204h-266.25z" fill="#f4b978"/><path d="m256 512c32.121 0 63.243-11.476 87.635-32.313 24.112-20.599 40.268-49.082 45.49-80.204h-133.125z" fill="#ea9b58"/><g><path d="m186 222c-8.284 0-15-6.716-15-15v-20c0-8.284 6.716-15 15-15s15 6.716 15 15v20c0 8.284-6.716 15-15 15z" fill="#08475e"/><path d="m326 222c-8.284 0-15-6.716-15-15v-20c0-8.284 6.716-15 15-15s15 6.716 15 15v20c0 8.284-6.716 15-15 15z" fill="#05303d"/></g></g></svg>