<svg id="Layer_1" enable-background="new 0 0 512.006 512.006" height="512" viewBox="0 0 512.006 512.006" width="512" xmlns="http://www.w3.org/2000/svg"><g><path d="m389.342 219.293h-14.456l-7.388 199.929h15.564c45.101 0 81.793-36.692 81.793-81.793v-42.622c.001-41.639-33.874-75.514-75.513-75.514z" fill="#874208"/><path d="m389.342 219.293h-14.456l-7.388 199.929h15.564c45.101 0 81.793-36.692 81.793-81.793v-42.622c.001-41.639-33.874-75.514-75.513-75.514z" fill="#682a00"/><path d="m122.664 219.293c-41.638 0-75.514 33.875-75.514 75.514v42.622c0 45.101 36.692 81.793 81.793 81.793h15.564l-7.388-199.929z" fill="#874208"/><path d="m404.342 363.667v-363.667h-30c0 15.828-12.878 28.706-28.706 28.706h-179.266c-15.828 0-28.706-12.877-28.706-28.706h-30v363.667c0 58.511 34.055 109.212 83.382 133.339h129.914c49.327-24.128 83.382-74.829 83.382-133.339z" fill="#fec370"/><path d="m374.342 0c0 15.828-12.878 28.706-28.706 28.706h-89.633v468.3h64.957c49.327-24.128 83.382-74.829 83.382-133.339v-363.667z" fill="#e3a457"/><path d="m256.003 199.312-63.453 37.25 63.453 64.468 63.452-64.468z" fill="#ffe477"/><path d="m319.455 236.562-63.452-37.25v101.718z" fill="#ffb655"/><circle cx="189.333" cy="172.231" fill="#fcf2b6" r="66.67"/><circle cx="322.673" cy="172.231" fill="#fcf2b6" r="66.67"/><circle cx="322.673" cy="172.231" fill="#ffe477" r="66.67"/><path d="m322.672 90.562c-27.507 0-51.864 13.684-66.669 34.588-14.805-20.904-39.162-34.588-66.669-34.588-45.033 0-81.669 36.637-81.669 81.67s36.637 81.669 81.669 81.669c27.508 0 51.864-13.684 66.669-34.588 14.806 20.903 39.162 34.588 66.669 34.588 45.033 0 81.67-36.637 81.67-81.669 0-45.034-36.636-81.67-81.67-81.67zm-133.339 133.339c-28.491 0-51.669-23.179-51.669-51.669s23.179-51.67 51.669-51.67 51.669 23.179 51.669 51.67-23.178 51.669-51.669 51.669zm133.339 0c-28.49 0-51.669-23.179-51.669-51.669s23.179-51.67 51.669-51.67c28.491 0 51.67 23.179 51.67 51.67s-23.178 51.669-51.67 51.669z" fill="#b46615"/><path d="m322.672 90.562c-27.507 0-51.864 13.684-66.669 34.588v94.164c14.806 20.903 39.162 34.588 66.669 34.588 45.033 0 81.67-36.637 81.67-81.669 0-45.035-36.636-81.671-81.67-81.671zm0 133.339c-28.49 0-51.669-23.179-51.669-51.669s23.179-51.67 51.669-51.67c28.491 0 51.67 23.179 51.67 51.67s-23.178 51.669-51.67 51.669z" fill="#874208"/><g><path d="m307.672 157.23h30v30.001h-30z" fill="#874208"/></g><g><path d="m174.333 157.23h30v30.001h-30z" fill="#874208"/></g><g><path d="m62.15 482.006h387.706v30h-387.706z" fill="#874208"/></g><g><path d="m307.672 157.23h30v30.001h-30z" fill="#682a00"/></g><path d="m256.003 482.006h193.853v30h-193.853z" fill="#682a00"/></g></svg>