<svg id="Capa_1" enable-background="new 0 0 512 512" height="512" viewBox="0 0 512 512" width="512" xmlns="http://www.w3.org/2000/svg"><g><path d="m273.15 506h-34.3c-36.009 0-68.222-20.004-84.26-51.628-36.526-7.468-69.672-26.904-94.043-55.309-26.165-30.494-40.574-69.415-40.574-109.593v-66.13c0-24.33 8.529-48.064 24.017-66.83l2.924-3.543-21.154-17.626c-21.04-17.53-30.309-46.015-23.614-72.569 6.725-26.675 27.618-46.817 54.524-52.563 16.181-3.459 33.038 1.249 45.09 12.588l26.708 25.128c36.803-27.104 81.698-41.925 127.532-41.925 45.832 0 90.73 14.824 127.531 41.925l26.708-25.128c12.052-11.34 28.909-16.045 45.091-12.588 26.906 5.746 47.799 25.888 54.524 52.562 6.695 26.555-2.575 55.039-23.614 72.569l-21.153 17.626 2.924 3.543c15.488 18.765 24.017 42.499 24.017 66.83v66.131c0 40.178-14.409 79.099-40.574 109.593-24.371 28.404-57.517 47.841-94.043 55.309-16.039 31.624-48.252 51.628-84.261 51.628z" fill="#ffdd54"/><path d="m273.15 506c36.009 0 68.222-20.004 84.26-51.628 36.526-7.468 69.672-26.904 94.043-55.309 26.165-30.494 40.574-69.415 40.574-109.593v-66.13c0-24.331-8.53-48.065-24.017-66.83l-2.924-3.543 21.153-17.626c21.04-17.53 30.309-46.015 23.614-72.569-6.725-26.675-27.618-46.816-54.524-52.562-16.182-3.457-33.039 1.248-45.091 12.588l-26.708 25.128c-36.8-27.102-81.698-41.926-127.53-41.926v500z" fill="#ff9d21"/><path d="m301.122 409.93-30.122-27.54v-41.39c0-8.284-6.716-15-15-15s-15 6.716-15 15v41.39l-30.122 27.54c-6.114 5.59-6.539 15.078-.949 21.191 5.589 6.114 15.077 6.539 21.192.949l24.879-22.746 24.878 22.746c2.878 2.632 6.503 3.93 10.117 3.93 4.065 0 8.116-1.643 11.075-4.879 5.591-6.113 5.165-15.601-.948-21.191z" fill="#08475e"/><path d="m280.878 432.07c2.878 2.632 6.503 3.93 10.117 3.93 4.065 0 8.116-1.643 11.075-4.879 5.59-6.113 5.165-15.602-.949-21.191l-30.121-27.54v-41.39c0-8.284-6.716-15-15-15v83.324z" fill="#05303d"/><path d="m311 196c-8.284 0-15 6.716-15 15v60h-80v-60c0-8.284-6.716-15-15-15s-15 6.716-15 15v75c0 38.599 31.402 70 70 70s70-31.401 70-70v-75c0-8.284-6.716-15-15-15z" fill="#ff9d21"/><path d="m311 196c-8.284 0-15 6.716-15 15v60h-40v85c38.598 0 70-31.401 70-70v-75c0-8.284-6.716-15-15-15z" fill="#ff7038"/><path d="m383.458 347.529c-8.003-2.144-16.229 2.605-18.373 10.607v.001c-2.144 8.002 2.605 16.227 10.608 18.371 14.881 3.986 30.014 5.959 45.073 5.958 16.03 0 31.969-2.249 47.421-6.671 7.261-12.155 12.955-25.158 16.95-38.692-31.577 15.872-67.451 19.596-101.679 10.426z" fill="#05303d"/><path d="m379.62 290.575c-8.16-1.438-15.941 4.009-17.379 12.168-1.439 8.158 4.009 15.938 12.168 17.377 8.523 1.502 17.068 2.239 25.562 2.238 33.266-.002 65.629-11.317 91.728-32.203.1-.209.228-.476.329-.685v-41.04l-8.256 8.489c-27.043 27.805-65.981 40.387-104.152 33.656z" fill="#05303d"/><g fill="#08475e"><path d="m256 6c-5.015 0-10.017.188-15 .54v55.103c-25.552 2.127-49.33 9.648-68.12 21.745-6.966 4.484-8.977 13.767-4.493 20.732s13.767 8.977 20.732 4.492c14.394-9.267 32.733-14.84 51.88-16.749v25.099c-15.934 2.161-31.226 7.783-43.799 16.889-6.709 4.859-8.209 14.237-3.35 20.947 4.859 6.709 14.238 8.21 20.947 3.35 7.411-5.368 16.523-8.944 26.201-10.749v23.601c0 8.284 6.716 15 15 15s15-6.716 15-15v-23.6c9.678 1.805 18.79 5.381 26.201 10.749 2.659 1.926 5.736 2.853 8.787 2.853 4.646 0 9.227-2.152 12.161-6.202 4.859-6.71 3.359-16.088-3.35-20.947-12.573-9.106-27.865-14.728-43.799-16.889v-25.1c19.147 1.908 37.486 7.482 51.88 16.749 2.512 1.617 5.324 2.39 8.105 2.39 4.93-.001 9.759-2.429 12.626-6.882 4.484-6.966 2.473-16.248-4.493-20.732-18.786-12.098-42.564-19.619-68.116-21.747v-55.102c-4.983-.352-9.985-.54-15-.54z"/><path d="m137.591 320.12c8.16-1.439 13.607-9.219 12.169-17.377v-.001c-1.439-8.158-9.219-13.606-17.378-12.167h-.001c-38.174 6.731-77.11-5.852-104.152-33.656l-8.256-8.489v41.041c.1.209.229.476.329.685 26.099 20.887 58.459 32.202 91.728 32.202 8.49 0 17.041-.736 25.561-2.238z"/><path d="m136.307 376.508c8.003-2.144 12.753-10.369 10.608-18.371v-.001c-2.144-8.002-10.37-12.751-18.373-10.607-34.23 9.172-70.102 5.446-101.679-10.426 3.996 13.534 9.69 26.537 16.95 38.692 15.45 4.421 31.389 6.67 47.42 6.67 15.057.001 30.196-1.972 45.074-5.957z"/></g><path d="m271 171v-23.6c9.678 1.805 18.79 5.381 26.201 10.749 2.659 1.926 5.736 2.853 8.787 2.853 4.646 0 9.227-2.152 12.161-6.202 4.859-6.71 3.359-16.088-3.35-20.947-12.573-9.106-27.865-14.728-43.799-16.889v-25.1c19.147 1.908 37.486 7.482 51.88 16.749 2.512 1.617 5.324 2.39 8.105 2.39 4.93-.001 9.759-2.429 12.626-6.882 4.484-6.966 2.473-16.248-4.493-20.732-18.788-12.098-42.566-19.619-68.118-21.747v-55.102c-4.983-.352-9.985-.54-15-.54v180c8.284 0 15-6.716 15-15z" fill="#05303d"/><path d="m371 247c-8.284 0-15-6.716-15-15v-20c0-8.284 6.716-15 15-15s15 6.716 15 15v20c0 8.284-6.716 15-15 15z" fill="#05303d"/><path d="m141 247c-8.284 0-15-6.716-15-15v-20c0-8.284 6.716-15 15-15s15 6.716 15 15v20c0 8.284-6.716 15-15 15z" fill="#08475e"/></g></svg>