<?xml version="1.0" encoding="iso-8859-1"?>
<!-- Generator: Adobe Illustrator 19.0.0, SVG Export Plug-In . SVG Version: 6.00 Build 0)  -->
<svg version="1.1" id="Capa_1" xmlns="http://www.w3.org/2000/svg" xmlns:xlink="http://www.w3.org/1999/xlink" x="0px" y="0px"
	 viewBox="0 0 512.007 512.007" style="enable-background:new 0 0 512.007 512.007;" xml:space="preserve">
<path style="fill:#303C42;" d="M510.212,196.766c-27.339-41.006-58.383-57.468-86.146-64.145
	c36.556-25.028,40.6-72.751,43.063-101.776c0.583-7.135,1.083-13.374,2.021-18.114c1.042-5.375-2.146-10.666-7.396-12.25
	c-5.208-1.594-10.833,1.052-12.938,6.114c-22.299,53.618-76.62,73.687-107.91,77.66c-20.297-13.273-45.09-20.235-74.236-20.235
	h-21.333c-29.146,0-53.939,6.962-74.236,20.235c-31.29-3.973-85.611-24.042-107.91-77.66c-2.104-5.062-7.729-7.75-12.938-6.114
	c-5.25,1.583-8.438,6.875-7.396,12.25c0.938,4.739,1.438,10.979,2.021,18.114c2.462,29.03,6.507,76.765,43.081,101.79
	c-27.788,6.686-58.844,23.153-86.164,64.13c-1.687,2.542-2.229,5.698-1.437,8.656c0.792,2.958,2.812,5.437,5.542,6.802
	c1.733,0.866,41.245,19.933,101.07,22.05c-0.104,3.687-0.299,7.276-0.299,11.074c0,17.791,8.292,30.749,16.313,43.269
	c8.063,12.604,15.688,24.509,15.688,42.061v43.872c-7.004,11.419-10.667,25.244-10.667,41.458c0,16.755,7.012,42.988,47.871,50.917
	c2.715,2.846,5.383,5.729,7.941,8.643c15.083,17.072,32.167,36.436,72.188,36.436s57.104-19.364,72.188-36.436
	c2.559-2.914,5.227-5.797,7.941-8.643c40.859-7.929,47.871-34.163,47.871-50.917c0-16.214-3.663-30.039-10.667-41.458v-43.872
	c0-17.551,7.625-29.457,15.688-42.061c8.021-12.52,16.313-25.478,16.313-43.269c0-3.798-0.195-7.386-0.299-11.074
	c59.826-2.117,99.337-21.184,101.07-22.05c2.729-1.365,4.75-3.844,5.542-6.802C512.441,202.463,511.899,199.307,510.212,196.766z"/>
<path style="fill:#D7D8D6;" d="M442.92,54.868c-5.697,36.112-19.641,65.289-63.353,71.436c-5.148-9.073-11.031-17.211-17.668-24.348
	C387.395,95.417,418.833,81.128,442.92,54.868z"/>
<path style="fill:#C38355;" d="M266.67,85.337c74.289,0,103.542,51.077,113.197,107.78c-2.716,0.427-5.44,0.878-8.197,1.574
	c-42.979,10.906-73,51.313-73,98.26v48.385h-85.333v-48.385c0-46.948-30.021-87.354-73-98.26c-2.757-0.697-5.48-1.147-8.197-1.574
	c9.655-56.703,38.908-107.78,113.197-107.78H266.67z"/>
<path style="fill:#D7D8D6;" d="M69.087,54.868c24.087,26.26,55.525,40.549,81.021,47.089c-6.637,7.137-12.52,15.275-17.668,24.348
	C88.727,120.157,74.783,90.98,69.087,54.868z"/>
<path style="fill:#C38355;" d="M27.191,197.941c31.457-40.642,65.779-47.204,94.383-48.299
	c-6.841,18.348-11.284,39.595-13.392,63.443C71.179,211.834,42.306,203.467,27.191,197.941z"/>
<path style="opacity:0.1;enable-background:new    ;" d="M53.337,197.941c22.742-40.642,47.557-47.204,68.237-48.299
	c-28.604,1.095-62.926,7.658-94.383,48.299c15.115,5.526,43.988,13.893,80.991,15.143c0.013-0.145,0.047-0.264,0.06-0.409
	C83.332,210.854,63.737,203.2,53.337,197.941z"/>
<path style="fill:#C38355;" d="M128.003,245.337c0-10.061,0.443-20.388,1.363-30.717c1.931,0.318,3.738,0.257,5.72,0.759
	c9.294,2.354,17.747,6.798,25.272,12.553c-6.646,3.876-11.022,10.197-11.022,17.405c0,5.896,4.771,10.667,10.667,10.667h23.305
	c5.501,11.191,8.695,23.788,8.695,36.948v49.243c-8.435,1.161-20.456,4.159-32,11.217V330.67c0-23.792-10.125-39.604-19.063-53.563
	C134.003,266.253,128.003,256.878,128.003,245.337z"/>
<path style="opacity:0.1;enable-background:new    ;" d="M128.003,245.337c0-10.061,0.443-20.388,1.363-30.717
	c1.931,0.318,3.738,0.257,5.72,0.759c9.294,2.354,17.747,6.798,25.272,12.553c-6.646,3.876-11.022,10.197-11.022,17.405
	c0,5.896,4.771,10.667,10.667,10.667h23.305c5.501,11.191,8.695,23.788,8.695,36.948v49.243c-8.435,1.161-20.456,4.159-32,11.217
	V330.67c0-23.792-10.125-39.604-19.063-53.563C134.003,266.253,128.003,256.878,128.003,245.337z"/>
<path style="fill:#E7C1A2;" d="M256.003,490.67c-25.557,0-37.658-9.167-49.436-21.777c12.577-1.12,21.091-6.969,27.895-11.973
	c6.771-4.979,12.125-8.917,21.542-8.917s14.771,3.938,21.542,8.917c6.803,5.004,15.318,10.853,27.895,11.973
	C293.661,481.503,281.561,490.67,256.003,490.67z"/>
<path style="opacity:0.1;enable-background:new    ;" d="M256.003,480.003c-19.082,0-30.658-5.117-40.203-12.956
	c-2.831,0.871-5.866,1.546-9.233,1.845c11.779,12.611,23.879,21.777,49.436,21.777s37.658-9.167,49.436-21.777
	c-3.367-0.299-6.402-0.974-9.233-1.845C286.661,474.886,275.085,480.003,256.003,480.003z"/>
<path style="fill:#E7C1A2;" d="M309.337,448.003c-7.917,0-12.625-3.469-19.146-8.26c-7.917-5.823-17.75-13.073-34.188-13.073
	s-26.271,7.25-34.188,13.073c-6.521,4.792-11.229,8.26-19.146,8.26c-35.396,0-53.333-10.771-53.333-32
	c0-16.458,4.604-29.333,13.667-38.281c15.333-15.146,38.375-15.208,39.667-15.052h106.667c0.042,0,0.125,0,0.188,0
	c0.25,0,24.021-0.198,39.479,15.052c9.063,8.948,13.667,21.823,13.667,38.281C362.67,437.233,344.733,448.003,309.337,448.003z"/>
<path style="opacity:0.1;enable-background:new    ;" d="M309.337,437.363c-7.917,0-12.625-3.469-19.146-8.26
	c-7.917-5.823-17.75-13.073-34.188-13.073s-26.271,7.25-34.188,13.073c-6.521,4.792-11.229,8.26-19.146,8.26
	c-32.898,0-50.509-9.424-52.859-27.784c-0.174,2.129-0.474,4.159-0.474,6.424c0,21.229,17.938,32,53.333,32
	c7.917,0,12.625-3.469,19.146-8.26c7.917-5.823,17.75-13.073,34.188-13.073s26.271,7.25,34.188,13.073
	c6.521,4.792,11.229,8.26,19.146,8.26c35.396,0,53.333-10.771,53.333-32c0-2.266-0.299-4.296-0.474-6.424
	C359.846,427.938,342.235,437.363,309.337,437.363z"/>
<path style="fill:#C38355;" d="M371.066,277.108c-8.938,13.958-19.063,29.771-19.063,53.563v22.727
	c-11.572-7.09-23.561-10.055-32-11.202v-49.243c0-13.16,3.194-25.757,8.695-36.948h23.305c5.896,0,10.667-4.771,10.667-10.667
	c0-7.206-4.379-13.527-11.02-17.408c7.523-5.754,15.978-10.197,25.27-12.551c1.982-0.503,3.789-0.441,5.72-0.759
	c0.921,10.329,1.363,20.656,1.363,30.717C384.003,256.878,378.003,266.253,371.066,277.108z"/>
<path style="opacity:0.1;enable-background:new    ;" d="M371.066,277.108c-8.938,13.958-19.063,29.771-19.063,53.563v22.727
	c-11.572-7.09-23.561-10.055-32-11.202v-49.243c0-13.16,3.194-25.757,8.695-36.948h23.305c5.896,0,10.667-4.771,10.667-10.667
	c0-7.206-4.379-13.527-11.02-17.408c7.523-5.754,15.978-10.197,25.27-12.551c1.982-0.503,3.789-0.441,5.72-0.759
	c0.921,10.329,1.363,20.656,1.363,30.717C384.003,256.878,378.003,266.253,371.066,277.108z"/>
<g>
	<path style="fill:#303C42;" d="M181.337,384.003c-5.896,0-10.667,4.771-10.667,10.667c0,5.896,4.771,10.667,10.667,10.667
		c4.167,0,9.271,8.292,11.208,13.99c1.458,4.5,5.646,7.344,10.125,7.344c1.104,0,2.229-0.167,3.333-0.531
		c5.583-1.833,8.646-7.865,6.792-13.458C211.837,409.743,202.774,384.003,181.337,384.003z"/>
	<path style="fill:#303C42;" d="M330.67,384.003c-21.438,0-30.5,25.74-31.458,28.677c-1.854,5.594,1.208,11.625,6.792,13.458
		c1.104,0.365,2.229,0.531,3.333,0.531c4.479,0,8.667-2.844,10.125-7.344c1.667-5.021,6.813-13.99,11.208-13.99
		c5.896,0,10.667-4.771,10.667-10.667C341.337,388.774,336.566,384.003,330.67,384.003z"/>
</g>
<path style="fill:#C38355;" d="M403.825,213.085c-2.108-23.85-6.552-45.1-13.395-63.451c28.576,1.082,62.906,7.612,94.406,48.327
	C469.774,203.489,440.979,211.841,403.825,213.085z"/>
<path style="opacity:0.1;enable-background:new    ;" d="M390.431,149.635c20.655,1.082,45.47,7.612,68.24,48.327
	c-10.363,5.26-29.906,12.902-54.905,14.716c0.013,0.143,0.047,0.264,0.06,0.408c37.154-1.245,65.949-9.596,81.012-15.124
	C453.337,157.247,419.006,150.717,390.431,149.635z"/>
<g>
	<circle style="fill:#303C42;" cx="255.897" cy="138.67" r="10.667"/>
	<circle style="fill:#303C42;" cx="255.897" cy="245.337" r="10.667"/>
	<circle style="fill:#303C42;" cx="255.897" cy="192.003" r="21.333"/>
</g>
<linearGradient id="SVGID_1_" gradientUnits="userSpaceOnUse" x1="-46.6937" y1="640.7" x2="-25.0909" y2="630.626" gradientTransform="matrix(21.3333 0 0 -21.3333 998.429 13763.1553)">
	<stop  offset="0" style="stop-color:#FFFFFF;stop-opacity:0.2"/>
	<stop  offset="1" style="stop-color:#FFFFFF;stop-opacity:0"/>
</linearGradient>
<path style="fill:url(#SVGID_1_);" d="M510.212,196.766c-27.339-41.006-58.383-57.468-86.146-64.145
	c36.556-25.028,40.6-72.751,43.063-101.776c0.583-7.135,1.083-13.374,2.021-18.114c1.042-5.375-2.146-10.666-7.396-12.25
	c-5.208-1.594-10.833,1.052-12.938,6.114c-22.299,53.618-76.62,73.687-107.91,77.66c-20.297-13.273-45.09-20.235-74.236-20.235
	h-21.333c-29.146,0-53.939,6.962-74.236,20.235c-31.29-3.973-85.611-24.042-107.91-77.66c-2.104-5.062-7.729-7.75-12.938-6.114
	c-5.25,1.583-8.438,6.875-7.396,12.25c0.938,4.739,1.438,10.979,2.021,18.114c2.462,29.03,6.507,76.765,43.081,101.79
	c-27.788,6.686-58.844,23.153-86.164,64.13c-1.687,2.542-2.229,5.698-1.437,8.656c0.792,2.958,2.812,5.437,5.542,6.802
	c1.733,0.866,41.245,19.933,101.07,22.05c-0.104,3.687-0.299,7.276-0.299,11.074c0,17.791,8.292,30.749,16.313,43.269
	c8.063,12.604,15.688,24.509,15.688,42.061v43.872c-7.004,11.419-10.667,25.244-10.667,41.458c0,16.755,7.012,42.988,47.871,50.917
	c2.715,2.846,5.383,5.729,7.941,8.643c15.083,17.072,32.167,36.436,72.188,36.436s57.104-19.364,72.188-36.436
	c2.559-2.914,5.227-5.797,7.941-8.643c40.859-7.929,47.871-34.163,47.871-50.917c0-16.214-3.663-30.039-10.667-41.458v-43.872
	c0-17.551,7.625-29.457,15.688-42.061c8.021-12.52,16.313-25.478,16.313-43.269c0-3.798-0.195-7.386-0.299-11.074
	c59.826-2.117,99.337-21.184,101.07-22.05c2.729-1.365,4.75-3.844,5.542-6.802C512.441,202.463,511.899,199.307,510.212,196.766z"/>
<g>
</g>
<g>
</g>
<g>
</g>
<g>
</g>
<g>
</g>
<g>
</g>
<g>
</g>
<g>
</g>
<g>
</g>
<g>
</g>
<g>
</g>
<g>
</g>
<g>
</g>
<g>
</g>
<g>
</g>
</svg>
