<svg id="Capa_1" enable-background="new 0 0 512 512" height="512" viewBox="0 0 512 512" width="512" xmlns="http://www.w3.org/2000/svg"><g><g><path d="m390.381 512h-268.762c-67.061 0-121.619-54.558-121.619-121.619v-134.381c0-68.38 26.629-132.667 74.98-181.02 48.353-48.351 112.64-74.98 181.02-74.98s132.667 26.629 181.02 74.98c48.351 48.353 74.98 112.64 74.98 181.02v134.381c0 67.061-54.558 121.619-121.619 121.619z" fill="#444"/></g><g><path d="m437.02 74.98c-48.353-48.351-112.64-74.98-181.02-74.98v512h134.381c67.061 0 121.619-54.558 121.619-121.619v-134.381c0-68.38-26.629-132.667-74.98-181.02z" fill="#292929"/></g><path d="m436 230.243c0-36.506-29.594-66.1-66.1-66.1-36.506 0-66.1 29.594-66.1 66.1v82.958h-95.6v-82.958c0-36.506-29.594-66.1-66.1-66.1-36.506 0-66.1 29.594-66.1 66.1v272.87c14.095 5.724 29.494 8.887 45.619 8.887h268.762c16.126 0 31.524-3.162 45.619-8.887z" fill="#ececf1"/><g><path d="m369.9 164.144c-36.506 0-66.1 29.594-66.1 66.1v82.958h-47.8v198.798h134.381c16.126 0 31.524-3.162 45.619-8.887v-272.87c0-36.506-29.594-66.099-66.1-66.099z" fill="#d3d3d8"/></g><g><path d="m141.75 273c-8.284 0-15-6.716-15-15v-30c0-8.284 6.716-15 15-15s15 6.716 15 15v30c0 8.284-6.716 15-15 15z" fill="#444"/></g><g><path d="m370.25 273c-8.284 0-15-6.716-15-15v-30c0-8.284 6.716-15 15-15s15 6.716 15 15v30c0 8.284-6.716 15-15 15z" fill="#292929"/></g><path d="m190.629 298.269-23.613 25.457c-8.553 9.221-6.573 23.955 4.111 30.591l74.32 46.159c6.462 4.014 14.642 4.014 21.104 0l74.32-46.159c10.684-6.636 12.664-21.37 4.111-30.591l-23.613-25.457c-35.279-38.036-95.459-38.036-130.74 0z" fill="#ffb64c"/><g><path d="m344.983 323.726-23.613-25.457c-17.641-19.018-41.506-28.527-65.371-28.527v133.744c3.661 0 7.321-1.003 10.552-3.01l74.32-46.159c10.686-6.636 12.666-21.37 4.112-30.591z" fill="#e69f34"/></g></g></svg>