<svg id="Capa_1" enable-background="new 0 0 512 512" height="512" viewBox="0 0 512 512" width="512" xmlns="http://www.w3.org/2000/svg"><g><path d="m170.861 71.608h53.384v110.219h-111.126c-152.663-58.494-100.216-181.827-100.216-181.827z" fill="#a59da5"/><path d="m398.881 181.827h-134.552v-110.219h76.81l157.958-71.608s52.447 123.333-100.216 181.827z" fill="#c3bec6"/><path d="m348.371 477.818c-9.55 20.202-30.102 34.182-53.94 34.182h-76.862c-23.838 0-44.391-13.979-53.94-34.182-51.973-4.244-91.624-49.902-87.411-102.864l20.058-252.683c4.502-56.649 51.787-100.34 108.622-100.34h102.204c56.835 0 104.12 43.69 108.622 100.34l20.058 252.683c4.213 52.963-35.438 98.62-87.411 102.864z" fill="#c3bec6"/><path d="m256.263 512h-38.694c-23.838 0-44.391-13.979-53.94-34.182-51.973-4.244-91.624-49.902-87.411-102.864l20.058-252.683c4.502-56.649 51.787-100.34 108.622-100.34h51.097c-51.097 0-90.347 53.971-90.347 159.894s-6.058 306.738 90.615 330.175z" fill="#a59da5"/><g fill="#454045"><circle cx="198.462" cy="400.333" r="20.792"/><circle cx="313.538" cy="400.333" r="20.792"/></g><g fill="#282528"><path d="m134.805 226.87c-12.908 0-23.409 15.694-23.409 34.985s10.501 34.985 23.409 34.985c12.907 0 23.408-15.694 23.408-34.985.001-19.291-10.501-34.985-23.408-34.985z"/><path d="m377.195 226.869c-12.908 0-23.409 15.695-23.409 34.985 0 19.291 10.501 34.985 23.409 34.985 12.907 0 23.408-15.694 23.408-34.985 0-19.29-10.501-34.985-23.408-34.985z"/></g><path d="m293.061 355.773c-11.208 7.531-24.137 11.291-37.066 11.291-12.918 0-25.847-3.76-37.056-11.291-18.945-12.723-29.422-33.697-29.422-55.228 0-10.168 2.328-20.46 7.211-30.061l59.266-116.751 59.277 116.751c15.216 29.958 5.677 66.56-22.21 85.289z" fill="#f1f1f4"/><path d="m293.061 355.773c-11.208 7.531-24.137 11.291-37.066 11.291-12.918 0-25.847-3.76-37.056-11.291-18.945-12.723-29.422-33.697-29.422-55.228 0-10.168 2.328-20.46 7.211-30.061l59.266-116.751c-14.494 52.128-55.031 185.475 37.067 202.04z" fill="#f9f6f9"/></g></svg>