<svg height="512pt" viewBox="0 -6 512.00041 512" width="512pt" xmlns="http://www.w3.org/2000/svg"><path d="m359.921875 85.972656s-2.714844-47.71875 42.722656-68.320312c6.460938-2.929688 13.308594-4.910156 20.296875-6.140625l65.320313-11.50781275s44.710937 92.66796875-28.691407 153.80468775l-15.710937 16.355468-83.96875-62.691406zm0 0" fill="#e57670"/><path d="m401.375 138.441406 42.484375 31.722656 15.707031-16.355468c73.402344-61.140625 28.695313-153.80468775 28.695313-153.80468775s-71.132813 59.20703175-86.886719 138.43749975zm0 0" fill="#e7e7e7"/><path d="m459.570312 153.8125-15.707031 16.347656-19.546875-14.589844 14.507813-15.113281c49.75-41.429687 45.246093-97.339843 37.175781-129.074219 7.433594-7.363281 12.265625-11.382812 12.265625-11.382812s44.699219 92.671875-28.695313 153.8125zm0 0" fill="#cecece"/><path d="m152.078125 85.972656s2.714844-47.71875-42.722656-68.320312c-6.460938-2.929688-13.308594-4.910156-20.296875-6.140625l-65.320313-11.50781275s-44.710937 92.66796875 28.691407 153.80468775l15.714843 16.355468 83.964844-62.691406zm0 0" fill="#e57670"/><path d="m110.628906 138.441406-42.488281 31.722656-15.707031-16.355468c-73.402344-61.140625-28.695313-153.80468775-28.695313-153.80468775s71.136719 59.20703175 86.890625 138.43749975zm0 0" fill="#e7e7e7"/><path d="m52.429688 153.8125 15.710937 16.347656 19.542969-14.589844-14.507813-15.113281c-49.75-41.429687-45.246093-97.339843-37.175781-129.074219-7.433594-7.363281-12.265625-11.382812-12.265625-11.382812s-44.699219 92.671875 28.695313 153.8125zm0 0" fill="#cecece"/><path d="m458.816406 141.660156c-47.828125-59-125.636718-93.003906-202.234375-91.558594-76.910156 1.453126-154.039062 30.722657-203.359375 91.554688-56.890625 70.167969-71.605468 174.929688-27.335937 255.246094 37.441406 67.929687 122.09375 100.367187 196.484375 102.21875 76.9375 1.914062 168.570312-.808594 228.371094-56.519532 32.617187-30.382812 52.273437-72.410156 58.773437-116.195312 9.671875-65.171875-9.234375-133.601562-50.699219-184.746094zm0 0" fill="#ffc1b8"/><path d="m509.519531 326.410156c-6.5 43.785156-26.15625 85.804688-58.777343 116.195313-59.804688 55.703125-151.4375 58.429687-228.371094 56.515625-14.421875-.359375-29.230469-1.871094-44.011719-4.566406 2.660156.144531 5.3125.257812 7.957031.320312 76.933594 1.910156 168.566406-.804688 228.359375-56.515625 32.621094-30.390625 52.28125-72.40625 58.777344-116.195313 9.671875-65.171874-9.234375-133.609374-50.695313-184.75-36.847656-45.460937-91.5-76.078124-149.691406-87.066406 71.113282 3.320313 141.351563 36.546875 185.746094 91.316406 41.464844 51.136719 60.371094 119.574219 50.707031 184.746094zm0 0" fill="#ffb3a8"/><path d="m188 249.761719c0 7.117187-5.769531 12.886719-12.886719 12.886719-7.117187 0-12.886719-5.769532-12.886719-12.886719 0-7.117188 5.769532-12.886719 12.886719-12.886719 7.117188 0 12.886719 5.769531 12.886719 12.886719zm0 0" fill="#484a4c"/><path d="m349.777344 249.761719c0 7.117187-5.773438 12.886719-12.890625 12.886719-7.117188 0-12.886719-5.769532-12.886719-12.886719 0-7.117188 5.769531-12.886719 12.886719-12.886719 7.117187 0 12.890625 5.769531 12.890625 12.886719zm0 0" fill="#484a4c"/><path d="m328.929688 317.417969c-35.71875-44.855469-110.332032-44.609375-145.859376 0-15.453124 19.402343-20.261718 45.460937-11.207031 68.554687 22.460938 57.28125 145.945313 56.949219 168.277344 0 9.054687-23.09375 4.242187-49.152344-11.210937-68.554687zm0 0" fill="#e57670"/><path d="m340.140625 385.96875c-12.863281 32.816406-59.320313 46.839844-100.671875 41.863281 30.542969-3.648437 58.355469-17.632812 67.855469-41.863281 9.054687-23.089844 4.246093-49.152344-11.207031-68.554688-14.269532-17.917968-34.75-28.640624-56.464844-32.207031 32.539062-5.335937 67.886718 5.34375 89.28125 32.207031 15.453125 19.402344 20.265625 45.464844 11.207031 68.554688zm0 0" fill="#e05c56"/><path d="m234.765625 348.496094c-4.332031 0-7.84375 3.511718-7.84375 7.84375 0 4.328125 3.511719 7.839844 7.84375 7.839844s7.84375-3.511719 7.84375-7.839844c0-4.332032-3.511719-7.84375-7.84375-7.84375zm0 0" fill="#484a4c"/><path d="m277.234375 348.496094c-4.328125 0-7.839844 3.511718-7.839844 7.84375 0 4.328125 3.511719 7.839844 7.839844 7.839844 4.332031 0 7.84375-3.511719 7.84375-7.839844 0-4.332032-3.511719-7.84375-7.84375-7.84375zm0 0" fill="#484a4c"/><g fill="#ff7a7a"><path d="m138.679688 319.175781c0 19.5-15.804688 35.308594-35.304688 35.308594s-35.308594-15.808594-35.308594-35.308594 15.808594-35.304687 35.308594-35.304687 35.304688 15.804687 35.304688 35.304687zm0 0"/><path d="m443.933594 319.175781c0 19.5-15.804688 35.308594-35.304688 35.308594s-35.308594-15.808594-35.308594-35.308594 15.808594-35.304687 35.308594-35.304687 35.304688 15.804687 35.304688 35.304687zm0 0"/></g></svg>