<svg height="512" viewBox="0 0 128 128" width="512" xmlns="http://www.w3.org/2000/svg"><g><g><g fill="#b25f4c"><circle cx="29.929" cy="34.629" r="11.946"/><circle cx="98.071" cy="34.629" r="11.946"/></g><path d="m64 105.318a40.685 40.685 0 0 1 -40.666-41.892l.34-11.445a26.573 26.573 0 0 1 26.561-25.781h27.53a26.573 26.573 0 0 1 26.561 25.784l.34 11.445a40.685 40.685 0 0 1 -40.666 41.889z" fill="#c5715d"/><path d="m99.668 63.574-.34-11.444a21.47 21.47 0 0 0 -21.563-20.93h-13.765v69.121a35.686 35.686 0 0 0 35.668-36.747z" fill="#b25f4c"/><circle cx="64" cy="79.652" fill="#685450" r="18.801"/><g fill="#534340"><path d="m71.305 68.155c0 4.034-3.271 1.992-7.305 1.992s-7.3 2.042-7.3-1.992a7.305 7.305 0 0 1 14.61 0z"/><g><path d="m53.379 47.943-11.9-2.35a1.75 1.75 0 1 0 -.677 3.433l11.9 2.35a1.729 1.729 0 0 0 .341.034 1.75 1.75 0 0 0 .337-3.467z"/><path d="m88.574 46.97a1.751 1.751 0 0 0 -2.055-1.377l-11.9 2.35a1.75 1.75 0 0 0 .337 3.467 1.729 1.729 0 0 0 .341-.034l11.9-2.35a1.749 1.749 0 0 0 1.377-2.056z"/></g><path d="m73.155 77.9h-7.405v-7.753a1.75 1.75 0 1 0 -3.5 0v7.753h-7.405a1.75 1.75 0 1 0 0 3.5h18.31a1.75 1.75 0 0 0 0-3.5z"/></g></g><g fill="#432c00"><path d="m98.071 20.932a13.619 13.619 0 0 0 -10.7 5.162 28.6 28.6 0 0 0 -9.61-1.647h-14.324a1.75 1.75 0 0 0 0 3.5h14.328a24.982 24.982 0 0 1 9.342 1.8 1.778 1.778 0 0 0 .406.168 24.694 24.694 0 0 1 15.064 22.122l.34 11.445a38.934 38.934 0 1 1 -77.834 0l.34-11.445a24.86 24.86 0 0 1 .964-6.171v-.009a1.748 1.748 0 0 0 -.914-2.05 10.193 10.193 0 1 1 11.8-16.221 28.358 28.358 0 0 0 -9.191 7.538 1.75 1.75 0 0 0 2.737 2.176 24.715 24.715 0 0 1 19.416-9.356 1.75 1.75 0 0 0 0-3.5 28.369 28.369 0 0 0 -9.6 1.67 13.684 13.684 0 1 0 -17.956 20.13 28.368 28.368 0 0 0 -.754 5.686l-.34 11.444a42.434 42.434 0 0 0 72.863 30.816 42.092 42.092 0 0 0 11.967-30.816l-.34-11.444a28.183 28.183 0 0 0 -15.326-24.373 10.189 10.189 0 0 1 16.27 11.966 1.75 1.75 0 1 0 3.07 1.682 13.7 13.7 0 0 0 -12.018-20.273z"/><path d="m57 27.947h.5a1.75 1.75 0 0 0 0-3.5h-.5a1.75 1.75 0 0 0 0 3.5z"/><path d="m74.537 93.058c-.213.168-.431.331-.652.488a1.75 1.75 0 0 0 2.029 2.854c.269-.191.531-.388.789-.591a1.75 1.75 0 0 0 -2.166-2.749z"/><path d="m53.813 65.977a1.75 1.75 0 0 0 -2.093-2.805 20.556 20.556 0 0 0 17.915 36.247 1.75 1.75 0 1 0 -.957-3.366 17.064 17.064 0 0 1 -21.729-16.4 16.916 16.916 0 0 1 6.864-13.676z"/><path d="m39.426 46.97a1.749 1.749 0 0 0 1.374 2.056l11.9 2.35a1.729 1.729 0 0 0 .341.034 1.75 1.75 0 0 0 .337-3.467l-11.9-2.35a1.753 1.753 0 0 0 -2.052 1.377z"/><path d="m74.958 51.41a1.729 1.729 0 0 0 .341-.034l11.9-2.35a1.75 1.75 0 1 0 -.677-3.433l-11.9 2.35a1.75 1.75 0 0 0 .337 3.467z"/><path d="m54.845 77.9a1.75 1.75 0 1 0 0 3.5h18.31a1.75 1.75 0 0 0 0-3.5h-7.405v-5.876c.38.047.76.1 1.13.154a16.25 16.25 0 0 0 2.322.236 3.764 3.764 0 0 0 2.587-.842 4.236 4.236 0 0 0 1.266-3.417 9 9 0 0 0 -.636-3.312 17.033 17.033 0 0 1 5.921 24.037 1.75 1.75 0 0 0 2.941 1.9 20.534 20.534 0 0 0 -16.356-31.633 9.068 9.068 0 0 0 -9.98 9.008 4.236 4.236 0 0 0 1.266 3.417c1.319 1.14 3.064.88 4.909.606.37-.055.75-.107 1.13-.154v5.876zm5.76-9.185a10.153 10.153 0 0 1 -2.084.184 2.784 2.784 0 0 1 -.076-.745 5.555 5.555 0 0 1 11.11 0 2.784 2.784 0 0 1 -.076.745 10.207 10.207 0 0 1 -2.084-.184 22.437 22.437 0 0 0 -3.395-.315 22.437 22.437 0 0 0 -3.395.316z"/></g></g></svg>