<svg id="Capa_1" enable-background="new 0 0 512 512" height="512" viewBox="0 0 512 512" width="512" xmlns="http://www.w3.org/2000/svg"><g><g><g><path d="m294.466 512c-12.231 0-24.345-3.066-35.045-8.873-2.178-1.182-4.776-1.181-6.952-.001-10.701 5.807-22.817 8.874-35.047 8.874-.047 0-.094 0-.141 0-19.829-.039-38.44-7.932-52.406-22.224-13.973-14.299-21.425-33.085-20.985-52.898.211-9.487 2.283-18.875 6.048-27.558l-53.705-109.526c-2.621-5.346-6.756-9.707-11.956-12.612l-53.972-30.152c-18.693-10.443-30.305-30.219-30.305-51.612v-56.149c0-23.019 13.528-44.107 34.464-53.726l45.622-20.958c4.614-19.581 15.297-37.362 30.626-50.731 17.636-15.383 40.257-23.854 63.694-23.854 33.73 0 64.406 17.419 81.885 45.015 17.482-27.594 48.157-45.015 81.885-45.015 23.496 0 46.159 8.509 63.814 23.96 15.345 13.429 26.009 31.277 30.571 50.921l44.976 20.662c20.935 9.619 34.463 30.707 34.463 53.726v56.149c0 21.393-11.612 41.169-30.303 51.611l-53.972 30.152c-5.201 2.905-9.336 7.267-11.958 12.613l-53.764 109.646c3.744 8.677 5.8 18.056 5.999 27.53.415 19.797-7.05 38.562-21.019 52.839-13.964 14.271-32.564 22.151-52.376 22.19-.047.001-.095.001-.141.001z" fill="#1fbf66"/></g><g><path d="m477.536 95.543-44.976-20.662c-4.562-19.644-15.226-37.492-30.571-50.921-17.654-15.451-40.317-23.96-63.813-23.96-33.728 0-64.403 17.421-81.884 45.015v457.248c1.077.052 2.147.331 3.13.865 10.7 5.807 22.814 8.873 35.045 8.873h.141c19.812-.039 38.412-7.919 52.376-22.19 13.969-14.276 21.434-33.042 21.019-52.839-.199-9.475-2.255-18.854-5.999-27.53l53.764-109.646c2.622-5.347 6.757-9.708 11.958-12.613l53.972-30.152c18.69-10.444 30.302-30.22 30.302-51.613v-56.149c0-23.019-13.528-44.107-34.464-53.726z" fill="#00ab5e"/></g></g><circle cx="217.181" cy="438.527" fill="#007840" r="15"/><circle cx="294.127" cy="438.527" fill="#00591d" r="15"/><g fill="#007840"><path d="m294.183 346.232h-76.946c-8.284 0-15 6.716-15 15s6.716 15 15 15h76.946c8.284 0 15-6.716 15-15s-6.716-15-15-15z"/><path d="m309.183 274.278h-106.946c-8.284 0-15 6.716-15 15s6.716 15 15 15h106.946c8.284 0 15-6.716 15-15s-6.716-15-15-15z"/><path d="m329.183 202.323h-146.946c-8.284 0-15 6.716-15 15s6.716 15 15 15h146.946c8.284 0 15-6.716 15-15s-6.716-15-15-15z"/></g><g fill="#00591d"><path d="m294.183 376.232c8.284 0 15-6.716 15-15s-6.716-15-15-15h-38.183v30z"/><path d="m309.183 304.278c8.284 0 15-6.716 15-15s-6.716-15-15-15h-53.183v30z"/><path d="m329.183 202.323h-73.183v30h73.183c8.284 0 15-6.716 15-15s-6.716-15-15-15z"/></g><path d="m190.5 136.058v-30c0-8.284-6.716-15-15-15s-15 6.716-15 15v30c0 8.284 6.716 15 15 15s15-6.716 15-15z" fill="#444"/><path d="m336.5 91.058c-8.284 0-15 6.716-15 15v30c0 8.284 6.716 15 15 15s15-6.716 15-15v-30c0-8.284-6.716-15-15-15z" fill="#292929"/></g></svg>